<svg viewBox="0 0 54 50.8" xmlns="http://www.w3.org/2000/svg">
<path d="m45.517 10.668q0.2032 0.2032 0.4064 0.4064 0.5588 0.4064 1.1684 0.6604 0.8636 0.4064 1.6764 0.4064 1.1176 0 1.8288-0.6096 0.762-0.6096 0.762-1.524 0-1.1176-0.8636-1.6764t-2.1844-0.5588h-1.016l-0.5588-1.3208 2.5908-3.1496q0.3556-0.4064 0.762-0.762l0.3048-0.3048h-5.588v-2.2352h8.7884v1.6256l-3.5052 4.064q1.6256 0.254 2.6924 1.27 1.2192 1.1684 1.2192 2.9464 0 1.9304-1.3208 3.2512-1.4224 1.4732-3.7084 1.4732-1.3716 0-2.5908-0.508-0.9144-0.3556-1.6256-0.9144l-0.5588-0.508zm-17.12 3.048 11.582 20.676 5.7404-10.211-10.973-19.507h-12.7l-5.2832 9.398-5.2832-9.398h-11.481l16.662 29.718 0.1016-0.1524 0.0508 0.1524zm-28.296 34.646h1.7272q0 0.4064 0.3048 0.6604 0.3048 0.3048 0.8128 0.3048 0.5588 0 0.9144-0.254 0.3556-0.2032 0.3556-0.5588 0-0.5588-0.8636-0.7112l-0.9652-0.254q-2.0828-0.508-2.0828-2.2352 0-0.8636 0.762-1.524 0.8128-0.6604 1.9304-0.6604 1.1176 0 1.8796 0.508 0.9144 0.6604 0.9144 1.778h-1.7272q0-0.3556-0.3048-0.6096-0.254-0.2032-0.6604-0.2032-0.4064 0-0.7112 0.2032-0.254 0.254-0.254 0.6096 0 0.4572 0.762 0.6604l1.1684 0.3048q1.9304 0.508 1.9304 2.1336 0 1.0668-0.9144 1.6764-0.8636 0.6096-2.032 0.6096-1.1684 0-2.032-0.6604t-0.9144-1.778zm7.4168-1.3716q0-1.7272 1.1684-2.794t2.794-1.0668q1.8796 0 2.9464 1.4224l-1.27 1.016q-0.254-0.3556-0.7112-0.5588t-0.9144-0.2032q-0.9652 0-1.5748 0.6096-0.6096 0.6096-0.6096 1.524 0 0.9652 0.6096 1.5748 0.6096 0.6096 1.5748 0.6096 0.4572 0 0.9144-0.2032t0.7112-0.5588l1.27 1.016q-1.0668 1.4224-2.9464 1.4224-1.6256 0-2.794-1.0668t-1.1684-2.7432zm15.646-0.4572v4.064h-1.8288v-3.9624q0-0.8636-0.4572-1.3208-0.4064-0.4572-1.1176-0.4572-0.6604 0-1.1684 0.4064-0.6096 0.5588-0.6096 1.524v3.81h-1.8288v-11.227h1.8288v5.08q0.254-0.6096 0.9652-1.016 0.6604-0.3048 1.27-0.3048 1.4224 0 2.1844 0.8636 0.762 0.9144 0.762 2.54zm1.8796 0.4572q0-1.6764 1.1176-2.794 1.1684-1.0668 2.7432-1.0668 1.6256 0 2.7432 1.0668 1.1684 1.0668 1.1684 2.7432 0 1.7272-1.1684 2.794-1.1176 1.0668-2.7432 1.0668-1.5748 0-2.7432-1.0668-1.1176-1.0668-1.1176-2.7432zm5.9436 0q0-0.9652-0.6096-1.5748t-1.4732-0.6096-1.4732 0.6096q-0.5588 0.6096-0.5588 1.524 0 0.9652 0.5588 1.5748 0.6096 0.6096 1.4732 0.6096 0.9144 0 1.4732-0.6096 0.6096-0.6096 0.6096-1.524zm3.3528 0q0-1.6764 1.1176-2.794 1.1684-1.0668 2.7432-1.0668 1.6256 0 2.7432 1.0668 1.1684 1.0668 1.1684 2.7432 0 1.7272-1.1684 2.794-1.1176 1.0668-2.7432 1.0668-1.5748 0-2.7432-1.0668-1.1176-1.0668-1.1176-2.7432zm5.9436 0q0-0.9652-0.6096-1.5748t-1.4732-0.6096-1.4732 0.6096q-0.5588 0.6096-0.5588 1.524 0 0.9652 0.5588 1.5748 0.6096 0.6096 1.4732 0.6096 0.9144 0 1.4732-0.6096 0.6096-0.6096 0.6096-1.524zm3.8608 3.6068v-11.227h1.778v11.227zm3.7592-2.2352h1.7272q0 0.4064 0.3048 0.6604 0.3048 0.3048 0.8128 0.3048 0.5588 0 0.8636-0.254 0.3556-0.2032 0.3556-0.5588 0-0.5588-0.8128-0.7112l-0.9652-0.254q-2.0828-0.508-2.0828-2.2352 0-0.8636 0.762-1.524t1.8796-0.6604q1.1684 0 1.9304 0.508 0.9144 0.6604 0.8636 1.778h-1.7272q0-0.3556-0.3048-0.6096-0.254-0.2032-0.6604-0.2032t-0.7112 0.2032q-0.254 0.254-0.254 0.6096 0 0.4572 0.8128 0.6604l1.1684 0.3048q1.0668 0.3048 1.5748 0.9652 0.3556 0.508 0.3556 1.1684 0 1.0668-0.9144 1.6764-0.8636 0.6096-2.032 0.6096t-2.032-0.6604-0.9144-1.778z" fill="#04AA6D"/>
</svg>